<?xml version="1.0" encoding="UTF-8"?>
<svg width="22px" height="23px" viewBox="0 0 22 23" version="1.1" xmlns="http://www.w3.org/2000/svg" xmlns:xlink="http://www.w3.org/1999/xlink">
    <!-- Generator: Sketch 53.2 (72643) - https://sketchapp.com -->
    <title>run_icon</title>
    <desc>Created with Sketch.</desc>
    <g id="run_icon" stroke="none" stroke-width="1" fill="none" fill-rule="evenodd">
        <path d="M1.74597665,13.1301907 L5.27351086,13.9351991 L6.88676984,11.7548702 C6.93752681,11.6869634 7.02307295,11.6545025 7.10621543,11.6716005 C7.18935791,11.6886984 7.25507643,11.7522664 7.27479861,11.834667 C7.4152088,12.4192773 7.68164999,12.9663063 8.05555951,13.4376429 L8.5940964,14.1206092 C8.72019558,14.2807983 8.70604006,14.5098586 8.56117275,14.6533698 L6.8303293,16.3807348 C6.49630347,16.7648738 5.97711731,16.9336764 5.48045954,16.8196169 L1.07574515,15.8127697 C0.694777061,15.7256416 0.368422942,15.481943 0.177169178,15.1417752 C-0.0140845863,14.8016075 -0.0524358263,14.3966341 0.0715737496,14.0267306 C0.319517477,13.345964 1.04051451,12.9599143 1.74597665,13.1301907 Z M16.9684626,5.04959622 C18.344177,5.35919695 19.711527,4.49949764 20.0256589,3.12743332 C20.257554,2.11881493 19.857141,1.07017835 19.0114636,0.471369628 C18.1657862,-0.127439094 17.0417532,-0.15823489 16.1644302,0.393367777 C15.2871073,0.944970444 14.829649,1.97010342 15.0057463,2.98989982 C15.1818436,4.00969622 15.9567407,4.82288191 16.9684626,5.04959622 L16.9684626,5.04959622 Z M9.0174005,2.36467027 C8.61585517,2.23362854 8.17459698,2.33783164 7.87447942,2.63457104 L4.91605406,5.54949939 C4.47387114,5.97310005 4.43190665,6.66463337 4.8196348,7.13839351 C5.025894,7.37574065 5.32144044,7.51723524 5.63601778,7.52924164 C5.95059513,7.54124804 6.25610679,7.4226939 6.47992756,7.20176152 L8.96801503,4.75153189 L10.9998747,5.81001231 L8.91862955,8.98310662 C8.23882974,10.1302135 8.33795904,11.5768326 9.16790863,12.6208996 L12.163961,16.430021 L10.0591989,20.9854766 C9.77975188,21.5567935 9.91416666,22.2438057 10.3884355,22.6682493 C10.5644598,22.8164674 10.7745265,22.9188707 10.9998747,22.9663136 C11.0525995,22.9781801 11.1060051,22.9868019 11.1597896,22.9921302 C11.7528408,23.0552278 12.3202859,22.7343218 12.5708033,22.1941627 L15.0283188,16.814923 C15.2466815,16.3548132 15.1895246,15.811555 14.8801624,15.406745 L12.9799973,11.8464018 L14.739061,8.77892082 L15.6256479,10.5907764 C15.7607071,10.9472853 16.0665727,11.2119537 16.4393325,11.2948654 L16.5475102,11.3136411 L20.7147039,11.8534427 C21.0234142,11.9001689 21.3375681,11.8149726 21.5801257,11.6187463 C21.8239731,11.4227805 21.9755319,11.1347178 21.9987264,10.8231258 C22.0273422,10.2052687 21.5705133,9.67131914 20.9545763,9.60270492 L17.5187579,9.15443494 L16.5663237,6.80747169 C16.3482545,6.26932983 15.9760711,5.80728044 15.496305,5.4790905 C13.6095108,4.18682802 11.5442273,3.17563167 9.36545055,2.47732451 L9.0174005,2.36467027 Z" id="Shape" fill="#FFFFFF" fill-rule="nonzero"></path>
    </g>
</svg>