<?xml version="1.0" encoding="UTF-8"?>
<svg width="39px" height="34px" viewBox="0 0 39 34" version="1.1" xmlns="http://www.w3.org/2000/svg" xmlns:xlink="http://www.w3.org/1999/xlink">
    <!-- Generator: Sketch 53.2 (72643) - https://sketchapp.com -->
    <title>heart_icon</title>
    <desc>Created with Sketch.</desc>
    <defs>
        <linearGradient x1="50%" y1="0%" x2="50%" y2="100%" id="linearGradient-1">
            <stop stop-color="#F5515F" offset="0%"></stop>
            <stop stop-color="#9F041B" offset="100%"></stop>
        </linearGradient>
    </defs>
    <g id="heart_icon" stroke="none" stroke-width="1" fill="none" fill-rule="evenodd">
        <path d="M21.0338225,3.09800926 L19.5011742,4.65617959 L17.9685259,3.11634067 C13.8792183,-1.02608413 7.15637686,-1.02604307 3.0670693,3.11634067 C-1.02235643,7.25870681 -1.02235643,13.9507412 3.0670693,18.0931366 C8.12313062,23.2148462 13.1894143,28.3515142 18.2455347,33.4732238 C18.5788805,33.810183 19.0346554,34 19.5103921,34 C19.9861287,34 20.4419037,33.810183 20.7752494,33.4732238 L35.9352791,18.0747759 C40.018796,13.929858 40.0243503,7.24041646 35.9352791,3.09800926 C33.8905072,1.02685258 31.1758442,2.00067906e-13 28.4753034,2.00067906e-13 C25.7747627,0 23.0784763,1.02683498 21.0338225,3.09800926 Z M33.3870696,5.57275038 C36.1446312,8.36624695 36.1433312,12.8206519 33.3870696,15.6183662 L19.5011742,29.7152542 C14.8686622,25.0226464 10.2477317,20.3292761 5.61527883,15.6367269 C2.85748092,12.84316 2.85748092,8.36628802 5.61527883,5.57275038 C8.37295856,2.77923034 12.6810724,2.77918927 15.4388112,5.57275038 L18.227099,8.41411981 C18.5604448,8.75107908 19.0162197,8.94089606 19.4919563,8.94089606 C19.967693,8.94089606 20.4234679,8.75107908 20.7568137,8.41411981 L23.5635372,5.57275038 C24.9424362,4.17597276 26.7078948,3.46463757 28.4753034,3.46463757 C30.242712,3.46463757 32.0081116,4.17595516 33.3870696,5.57275038 Z" id="Shape" fill="url(#linearGradient-1)" fill-rule="nonzero"></path>
    </g>
</svg>